<svg xmlns="http://www.w3.org/2000/svg" color-interpolation-filters="sRGB" style="margin:auto" viewBox="0 0 340 250"><rect width="100%" height="100%" fill="#fff"/><g fill="#333"><g transform="translate(140 68.444)"><path fill="none" d="M0 0h60v61.882H0z"/><svg width="60" height="61.882" style="overflow:visible"><svg xmlns="http://www.w3.org/2000/svg" viewBox="0.032 0 430.579 444.09"><path fill="#ffb800" d="M214.23 312.43c-36.1 0-90.15 0-126.28-.28a21 21 0 0 1-13-5.24c-21.81-21.28-43.26-43-64.72-64.75-13.48-13.63-13.69-23.59-.07-37.36C48.22 166.36 86.59 128.28 124.82 90c30-30 59.89-60.13 89.63-90l66.63 67.09c-16.39 16.25-33.3 33-50.14 49.76-33.13 33.06-66.11 66.39-99.45 99.2-5.55 5.49-6 8.67 0 14.54 26 25.3 57.12 56.22 82.74 81.84"/><path fill="#0047ff" d="M221.4 134.94s84 0 121.2.28a20.7 20.7 0 0 1 12.79 5.45c22.12 21.49 43.79 43.43 65.56 65.27 12.68 12.76 13 22.33.24 35.22Q366.92 296.09 312 350.61c-29.63 29.66-59.4 59.16-88.83 89-5.55 5.66-9.12 6.18-14.85.28-17-17.48-34.45-34.67-51.89-51.82-4.61-4.51-5.2-7.94 0-12.93 17.93-17.48 35.47-35.33 53-53.15l13.21-13.21q37.53-37.14 74.85-74.39c10.48-10.49 10.48-11.15 0-21.46-23.62-23.71-52.43-54.3-76.13-78"/></svg></svg></g><path d="M114.71 172.796h7.93l-7.6-9.74c4.31-1.85 6.63-5.56 6.63-11.17 0-6.12-3.25-11.77-12.8-11.77H94.45v32.68h6.63v-8.39h6.08c.41 0 .88 0 1.25-.05Zm-13.63-26.94h6.73c5.14 0 6.9 3.16 6.9 6.54 0 3.85-2.5 6.54-7.78 6.54h-5.85Zm25.64 26.94h6.45v-25.17h-6.45Zm3.2-27.91c2.04 0 3.66-1.67 3.66-3.75 0-2.09-1.62-3.81-3.66-3.81s-3.71 1.72-3.71 3.81c0 2.08 1.67 3.75 3.71 3.75m24.29-6.49c-.32-.09-2.31-.88-5.56-.88-4.26 0-7.83 2.18-7.83 8.48v1.63h-3.53v5.33h3.53v17.48c0 4.86-.93 5.61-4.92 5.61v5.14c.84.19 2 .37 3.43.37 4.92 0 7.93-2.92 7.93-7.93v-20.67h6.77v-5.33h-6.77v-.38c0-2.64.51-4.26 4.31-4.26 1.07 0 1.9.14 2.64.23Zm21.33 9.23v1.57c-2.13-1.25-4.73-2.08-7.37-2.08-7.88 0-12.52 6.3-12.52 13.02 0 6.68 4.64 13.03 12.52 13.03 2.78 0 5.28-.83 7.37-2.22v1.85h6.45v-25.17Zm0 17.61c-1.58 1.35-3.75 2.14-6.21 2.14-4.55 0-7.47-3.44-7.47-7.24 0-3.75 2.88-7.18 7.47-7.18 2.41 0 4.63.83 6.21 2.18Zm26.01-18.08c-2.64 0-5.24.74-7.33 1.95v-1.48h-6.44v33.28h6.44v-9.64c2.09 1.21 4.64 1.9 7.33 1.9 7 0 12.75-5.24 12.75-12.98 0-7.88-5.75-13.03-12.75-13.03m-1.16 20.22c-2.46 0-4.64-.79-6.17-2.14v-10.1c1.58-1.35 3.76-2.18 6.17-2.18 4.31 0 7.56 3.1 7.56 7.23 0 4.26-3.25 7.19-7.56 7.19m32.41-20.22c-2.65 0-5.24.74-7.33 1.95v-1.48h-6.44v33.28h6.44v-9.64c2.09 1.21 4.64 1.9 7.33 1.9 7 0 12.75-5.24 12.75-12.98 0-7.88-5.75-13.03-12.75-13.03m-1.16 20.22c-2.46 0-4.64-.79-6.17-2.14v-10.1c1.58-1.35 3.76-2.18 6.17-2.18 4.31 0 7.56 3.1 7.56 7.23 0 4.26-3.25 7.19-7.56 7.19" data-gra="path-name"/></g></svg>