<svg xmlns="http://www.w3.org/2000/svg" width="155" height="46"><title>Layer 1</title><path id="svg_1" stroke="null" d="M21.26 36.47h7.93l-7.6-9.74c4.31-1.85 6.63-5.56 6.63-11.17 0-6.12-3.25-11.77-12.8-11.77H1v32.68h6.63v-8.39h6.08c.41 0 .88 0 1.25-.05zM7.63 9.53h6.73c5.14 0 6.9 3.16 6.9 6.54 0 3.85-2.5 6.54-7.78 6.54H7.63zm25.64 26.94h6.45V11.3h-6.45zm3.2-27.91c2.04 0 3.66-1.67 3.66-3.75 0-2.09-1.62-3.81-3.66-3.81s-3.71 1.72-3.71 3.81c0 2.08 1.67 3.75 3.71 3.75m24.29-6.49c-.32-.09-2.31-.88-5.56-.88-4.26 0-7.83 2.18-7.83 8.48v1.63h-3.53v5.33h3.53v17.48c0 4.86-.93 5.61-4.92 5.61v5.14c.84.19 2 .37 3.43.37 4.92 0 7.93-2.92 7.93-7.93V16.63h6.77V11.3h-6.77v-.38c0-2.64.51-4.26 4.31-4.26 1.07 0 1.9.14 2.64.23zm21.33 9.23v1.57c-2.13-1.25-4.73-2.08-7.37-2.08-7.88 0-12.52 6.3-12.52 13.02 0 6.68 4.64 13.03 12.52 13.03 2.78 0 5.28-.83 7.37-2.22v1.85h6.45V11.3zm0 17.61c-1.58 1.35-3.75 2.14-6.21 2.14-4.55 0-7.47-3.44-7.47-7.24 0-3.75 2.88-7.18 7.47-7.18 2.41 0 4.63.83 6.21 2.18zm26.01-18.08c-2.64 0-5.24.74-7.33 1.95V11.3h-6.44v33.28h6.44v-9.64c2.09 1.21 4.64 1.9 7.33 1.9 7 0 12.75-5.24 12.75-12.98 0-7.88-5.75-13.03-12.75-13.03m-1.16 20.22c-2.46 0-4.64-.79-6.17-2.14v-10.1c1.58-1.35 3.76-2.18 6.17-2.18 4.31 0 7.56 3.1 7.56 7.23 0 4.26-3.25 7.19-7.56 7.19m32.41-20.22c-2.65 0-5.24.74-7.33 1.95V11.3h-6.44v33.28h6.44v-9.64c2.09 1.21 4.64 1.9 7.33 1.9 7 0 12.75-5.24 12.75-12.98 0-7.88-5.75-13.03-12.75-13.03m-1.16 20.22c-2.46 0-4.64-.79-6.17-2.14v-10.1c1.58-1.35 3.76-2.18 6.17-2.18 4.31 0 7.56 3.1 7.56 7.23 0 4.26-3.25 7.19-7.56 7.19"/></svg>